<?xml version="1.0" encoding="utf-8"?>
<!-- Generator: Adobe Illustrator 24.1.1, SVG Export Plug-In . SVG Version: 6.00 Build 0)  -->
<svg version="1.1" id="Layer_1" xmlns="http://www.w3.org/2000/svg" xmlns:xlink="http://www.w3.org/1999/xlink" x="0px" y="0px"
	 viewBox="0 0 512 512" style="enable-background:new 0 0 512 512;" xml:space="preserve">
<style type="text/css">
	.st0{fill:#196CB0;}
	.st1{fill:#004176;}
	.st2{fill:#FFFFFF;}
	.st3{fill:#E0E0D1;}
	.st4{fill:#BAB9AE;}
	.st5{fill:#4F5D73;}
	.st6{fill:#727D8F;}
</style>
<g id="XMLID_1_">
	<path id="XMLID_3_" class="st0" d="M256,0c141,0,256,115,256,256S397,512,256,512S0,397,0,256S115,0,256,0"/>
	<path id="XMLID_4_" class="st1" d="M336.3,400.1H175.7c-8.7,0-15.8,7.1-15.8,15.8c0,8.7,7.1,15.8,15.8,15.8h159.9
		c8.7,0,15.8-7.1,15.8-15.8C351.3,407.2,345,400.1,336.3,400.1"/>
	<path id="XMLID_5_" class="st2" d="M352.1,400.1c0,8.7-7.1,15.8-15.8,15.8H175.7c-8.7,0-15.8-7.1-15.8-15.8
		c0-8.7,7.1-15.8,15.8-15.8h159.9C345,384.4,352.1,391.5,352.1,400.1z"/>
	<path id="XMLID_6_" class="st3" d="M296.2,336.3c0,0-7.9,48,23.6,48c0,0-159.9,0-127.6,0s23.6-48,23.6-48L296.2,336.3"/>
	<path id="XMLID_7_" class="st1" d="M96.1,144.1L96.1,144.1v175.7c0,17.3,14.2,32.3,32.3,32.3h88.2c0-8.7-0.8-15.8-0.8-15.8h80.3
		c0,0-1.6,7.1-0.8,15.8h89c17.3,0,32.3-14.2,32.3-32.3V304c0,17.3-14.2,32.3-32.3,32.3H127.6c-17.3,0-32.3-14.2-32.3-32.3V144.1"/>
	<path id="XMLID_8_" class="st4" d="M296.2,336.3h-80.3c0,0,1.6,7.1,0.8,15.8h78.8C294.6,343.4,296.2,336.3,296.2,336.3"/>
	<path id="XMLID_9_" class="st5" d="M127.6,323.7c-11,0-19.7-8.7-19.7-19.7V127.6c0-11,8.7-19.7,19.7-19.7h256
		c11,0,19.7,8.7,19.7,19.7v175.7c0,11-8.7,19.7-19.7,19.7h-256"/>
	<path id="XMLID_12_" class="st2" d="M384.4,119.7c4.7,0,7.9,3.2,7.9,7.9v175.7c0,4.7-3.2,7.9-7.9,7.9H127.6c-4.7,0-7.9-3.2-7.9-7.9
		V127.6c0-4.7,3.2-7.9,7.9-7.9H384.4 M384.4,96.1H127.6c-17.3,0-32.3,14.2-32.3,32.3V304c0,17.3,14.2,32.3,32.3,32.3h256
		c17.3,0,32.3-14.2,32.3-32.3V127.6C415.9,110.3,401.7,96.1,384.4,96.1"/>
	<path id="XMLID_13_" class="st6" d="M384.4,119.7H215.8l110.3,192.2h58.3c4.7,0,7.9-3.2,7.9-7.9V127.6
		C392.3,122.9,389.1,119.7,384.4,119.7"/>
	<path id="XMLID_14_" class="st2" d="M400.1,111.1H210.3l4.7,8.7h168.6c4.7,0,7.9,3.2,7.9,7.9v175.7c0,4.7-3.2,7.9-7.9,7.9h-58.3
		l3.9,7.1h70.1V111.1"/>
</g>
</svg>
